<mxfile host="app.diagrams.net" agent="Mozilla/5.0 (Windows NT 10.0; Win64; x64) AppleWebKit/537.36 (KHTML, like Gecko) Chrome/130.0.0.0 Safari/537.36" version="24.8.4">
  <diagram name="Page-1" id="Xa5YQdAASDwEEKE8111q">
    <mxGraphModel dx="3420" dy="1415" grid="1" gridSize="10" guides="1" tooltips="1" connect="1" arrows="1" fold="1" page="1" pageScale="1" pageWidth="827" pageHeight="1169" math="0" shadow="0">
      <root>
        <mxCell id="0" />
        <mxCell id="1" parent="0" />
        <mxCell id="xnvayWY3Ro9LNE6wZ4xw-27" style="rounded=0;orthogonalLoop=1;jettySize=auto;html=1;exitX=1;exitY=0.5;exitDx=0;exitDy=0;strokeColor=default;startArrow=none;startFill=0;endArrow=none;endFill=0;entryX=0;entryY=0.5;entryDx=0;entryDy=0;" parent="1" source="xnvayWY3Ro9LNE6wZ4xw-28" edge="1">
          <mxGeometry relative="1" as="geometry">
            <mxPoint x="341" y="365" as="targetPoint" />
          </mxGeometry>
        </mxCell>
        <mxCell id="xnvayWY3Ro9LNE6wZ4xw-28" value="DCM" style="whiteSpace=wrap;html=1;aspect=fixed;" parent="1" vertex="1">
          <mxGeometry x="-30" y="340" width="50" height="50" as="geometry" />
        </mxCell>
        <mxCell id="xnvayWY3Ro9LNE6wZ4xw-29" value="" style="endArrow=none;html=1;rounded=0;" parent="1" edge="1">
          <mxGeometry width="50" height="50" relative="1" as="geometry">
            <mxPoint x="-280" y="350" as="sourcePoint" />
            <mxPoint x="-30" y="350" as="targetPoint" />
          </mxGeometry>
        </mxCell>
        <mxCell id="xnvayWY3Ro9LNE6wZ4xw-30" value="" style="endArrow=none;html=1;rounded=0;" parent="1" edge="1">
          <mxGeometry width="50" height="50" relative="1" as="geometry">
            <mxPoint x="-100" y="380" as="sourcePoint" />
            <mxPoint x="-30" y="380" as="targetPoint" />
          </mxGeometry>
        </mxCell>
        <mxCell id="xnvayWY3Ro9LNE6wZ4xw-31" value="CLK" style="text;html=1;align=center;verticalAlign=middle;whiteSpace=wrap;rounded=0;" parent="1" vertex="1">
          <mxGeometry x="274" y="340" width="50" height="30" as="geometry" />
        </mxCell>
        <mxCell id="xnvayWY3Ro9LNE6wZ4xw-32" value="fpga_clk" style="text;html=1;align=center;verticalAlign=middle;whiteSpace=wrap;rounded=0;" parent="1" vertex="1">
          <mxGeometry x="-90" y="320" width="60" height="30" as="geometry" />
        </mxCell>
        <mxCell id="xnvayWY3Ro9LNE6wZ4xw-33" value="" style="endArrow=none;html=1;rounded=0;" parent="1" edge="1">
          <mxGeometry width="50" height="50" relative="1" as="geometry">
            <mxPoint x="-280" y="380" as="sourcePoint" />
            <mxPoint x="-40" y="380" as="targetPoint" />
          </mxGeometry>
        </mxCell>
        <mxCell id="xnvayWY3Ro9LNE6wZ4xw-34" value="rst" style="text;html=1;align=center;verticalAlign=middle;whiteSpace=wrap;rounded=0;" parent="1" vertex="1">
          <mxGeometry x="-92" y="355" width="60" height="30" as="geometry" />
        </mxCell>
        <mxCell id="xnvayWY3Ro9LNE6wZ4xw-36" value="" style="endArrow=none;html=1;rounded=0;" parent="1" edge="1">
          <mxGeometry width="50" height="50" relative="1" as="geometry">
            <mxPoint x="-280" y="260" as="sourcePoint" />
            <mxPoint x="340" y="260" as="targetPoint" />
          </mxGeometry>
        </mxCell>
        <mxCell id="xnvayWY3Ro9LNE6wZ4xw-37" value="btn_left_unsync" style="text;html=1;align=center;verticalAlign=middle;whiteSpace=wrap;rounded=0;" parent="1" vertex="1">
          <mxGeometry x="239" y="230" width="90" height="30" as="geometry" />
        </mxCell>
        <mxCell id="xnvayWY3Ro9LNE6wZ4xw-38" value="" style="endArrow=none;html=1;rounded=0;" parent="1" edge="1">
          <mxGeometry width="50" height="50" relative="1" as="geometry">
            <mxPoint x="-280" y="290" as="sourcePoint" />
            <mxPoint x="340" y="290" as="targetPoint" />
          </mxGeometry>
        </mxCell>
        <mxCell id="xnvayWY3Ro9LNE6wZ4xw-39" value="btn_right_unsync" style="text;html=1;align=center;verticalAlign=middle;whiteSpace=wrap;rounded=0;" parent="1" vertex="1">
          <mxGeometry x="239" y="260" width="90" height="30" as="geometry" />
        </mxCell>
        <mxCell id="xnvayWY3Ro9LNE6wZ4xw-44" value="fpga_clk" style="text;html=1;align=center;verticalAlign=middle;whiteSpace=wrap;rounded=0;" parent="1" vertex="1">
          <mxGeometry x="-258" y="322.5" width="60" height="30" as="geometry" />
        </mxCell>
        <mxCell id="xnvayWY3Ro9LNE6wZ4xw-45" value="rst" style="text;html=1;align=center;verticalAlign=middle;whiteSpace=wrap;rounded=0;" parent="1" vertex="1">
          <mxGeometry x="-260" y="355.5" width="60" height="30" as="geometry" />
        </mxCell>
        <mxCell id="xnvayWY3Ro9LNE6wZ4xw-46" value="Btns_synchro" style="rounded=0;whiteSpace=wrap;html=1;" parent="1" vertex="1">
          <mxGeometry x="340" y="210" width="120" height="215" as="geometry" />
        </mxCell>
        <mxCell id="xnvayWY3Ro9LNE6wZ4xw-47" value="btn_left_unsync" style="text;html=1;align=center;verticalAlign=middle;whiteSpace=wrap;rounded=0;" parent="1" vertex="1">
          <mxGeometry x="-273" y="232.5" width="90" height="30" as="geometry" />
        </mxCell>
        <mxCell id="xnvayWY3Ro9LNE6wZ4xw-48" value="btn_right_unsync" style="text;html=1;align=center;verticalAlign=middle;whiteSpace=wrap;rounded=0;" parent="1" vertex="1">
          <mxGeometry x="-273" y="262.5" width="90" height="30" as="geometry" />
        </mxCell>
        <mxCell id="xnvayWY3Ro9LNE6wZ4xw-50" value="" style="endArrow=none;html=1;rounded=0;entryX=1;entryY=1;entryDx=0;entryDy=0;" parent="1" target="xnvayWY3Ro9LNE6wZ4xw-57" edge="1">
          <mxGeometry width="50" height="50" relative="1" as="geometry">
            <mxPoint x="460" y="270" as="sourcePoint" />
            <mxPoint x="580" y="270" as="targetPoint" />
          </mxGeometry>
        </mxCell>
        <mxCell id="xnvayWY3Ro9LNE6wZ4xw-51" value="" style="endArrow=none;html=1;rounded=0;entryX=1;entryY=1;entryDx=0;entryDy=0;" parent="1" target="xnvayWY3Ro9LNE6wZ4xw-58" edge="1">
          <mxGeometry width="50" height="50" relative="1" as="geometry">
            <mxPoint x="460" y="318" as="sourcePoint" />
            <mxPoint x="680" y="340" as="targetPoint" />
          </mxGeometry>
        </mxCell>
        <mxCell id="xnvayWY3Ro9LNE6wZ4xw-52" value="btn_left" style="text;html=1;align=center;verticalAlign=middle;whiteSpace=wrap;rounded=0;" parent="1" vertex="1">
          <mxGeometry x="490" y="240" width="60" height="30" as="geometry" />
        </mxCell>
        <mxCell id="xnvayWY3Ro9LNE6wZ4xw-53" value="btn_right" style="text;html=1;align=center;verticalAlign=middle;whiteSpace=wrap;rounded=0;" parent="1" vertex="1">
          <mxGeometry x="490" y="292.5" width="60" height="30" as="geometry" />
        </mxCell>
        <mxCell id="xnvayWY3Ro9LNE6wZ4xw-55" value="Ctrl_game" style="rounded=0;whiteSpace=wrap;html=1;rotation=0;" parent="1" vertex="1">
          <mxGeometry x="700" y="225" width="100" height="345" as="geometry" />
        </mxCell>
        <mxCell id="xnvayWY3Ro9LNE6wZ4xw-57" value="btn_left" style="text;html=1;align=center;verticalAlign=middle;whiteSpace=wrap;rounded=0;" parent="1" vertex="1">
          <mxGeometry x="640" y="240" width="60" height="30" as="geometry" />
        </mxCell>
        <mxCell id="xnvayWY3Ro9LNE6wZ4xw-58" value="btn_right" style="text;html=1;align=center;verticalAlign=middle;whiteSpace=wrap;rounded=0;" parent="1" vertex="1">
          <mxGeometry x="640" y="290" width="60" height="30" as="geometry" />
        </mxCell>
        <mxCell id="xnvayWY3Ro9LNE6wZ4xw-59" value="rst" style="text;html=1;align=center;verticalAlign=middle;whiteSpace=wrap;rounded=0;" parent="1" vertex="1">
          <mxGeometry x="269" y="380" width="60" height="30" as="geometry" />
        </mxCell>
        <mxCell id="xnvayWY3Ro9LNE6wZ4xw-62" value="" style="endArrow=none;html=1;rounded=0;entryX=0.003;entryY=0.643;entryDx=0;entryDy=0;entryPerimeter=0;" parent="1" target="xnvayWY3Ro9LNE6wZ4xw-55" edge="1">
          <mxGeometry width="50" height="50" relative="1" as="geometry">
            <mxPoint x="80" y="365" as="sourcePoint" />
            <mxPoint x="720.0999999999999" y="445.55000000000007" as="targetPoint" />
            <Array as="points">
              <mxPoint x="80" y="447" />
            </Array>
          </mxGeometry>
        </mxCell>
        <mxCell id="xnvayWY3Ro9LNE6wZ4xw-63" value="CLK" style="text;html=1;align=center;verticalAlign=middle;whiteSpace=wrap;rounded=0;" parent="1" vertex="1">
          <mxGeometry x="645" y="420" width="50" height="30" as="geometry" />
        </mxCell>
        <mxCell id="xnvayWY3Ro9LNE6wZ4xw-64" value="CLK" style="text;html=1;align=center;verticalAlign=middle;whiteSpace=wrap;rounded=0;" parent="1" vertex="1">
          <mxGeometry x="20" y="340" width="50" height="30" as="geometry" />
        </mxCell>
        <mxCell id="xnvayWY3Ro9LNE6wZ4xw-65" value="" style="endArrow=none;html=1;rounded=0;entryX=0.006;entryY=0.774;entryDx=0;entryDy=0;entryPerimeter=0;" parent="1" target="xnvayWY3Ro9LNE6wZ4xw-55" edge="1">
          <mxGeometry width="50" height="50" relative="1" as="geometry">
            <mxPoint x="-103" y="410" as="sourcePoint" />
            <mxPoint x="547" y="490" as="targetPoint" />
            <Array as="points">
              <mxPoint x="-103" y="490" />
            </Array>
          </mxGeometry>
        </mxCell>
        <mxCell id="xnvayWY3Ro9LNE6wZ4xw-66" value="rst" style="text;html=1;align=center;verticalAlign=middle;whiteSpace=wrap;rounded=0;" parent="1" vertex="1">
          <mxGeometry x="640" y="460" width="60" height="30" as="geometry" />
        </mxCell>
        <mxCell id="xnvayWY3Ro9LNE6wZ4xw-67" value="" style="endArrow=none;html=1;rounded=0;entryX=0.008;entryY=0.935;entryDx=0;entryDy=0;entryPerimeter=0;" parent="1" target="xnvayWY3Ro9LNE6wZ4xw-46" edge="1">
          <mxGeometry width="50" height="50" relative="1" as="geometry">
            <mxPoint x="-103" y="380" as="sourcePoint" />
            <mxPoint x="185.80000000000018" y="410.595" as="targetPoint" />
            <Array as="points">
              <mxPoint x="-103" y="410" />
            </Array>
          </mxGeometry>
        </mxCell>
        <mxCell id="xnvayWY3Ro9LNE6wZ4xw-70" value="game_finished" style="text;html=1;align=center;verticalAlign=middle;whiteSpace=wrap;rounded=0;" parent="1" vertex="1">
          <mxGeometry x="610" y="510" width="60" height="30" as="geometry" />
        </mxCell>
        <mxCell id="xnvayWY3Ro9LNE6wZ4xw-71" value="" style="endArrow=none;html=1;rounded=0;entryX=0.011;entryY=0.949;entryDx=0;entryDy=0;entryPerimeter=0;exitX=1.008;exitY=0.392;exitDx=0;exitDy=0;exitPerimeter=0;" parent="1" source="xnvayWY3Ro9LNE6wZ4xw-55" target="xnvayWY3Ro9LNE6wZ4xw-76" edge="1">
          <mxGeometry width="50" height="50" relative="1" as="geometry">
            <mxPoint x="1080.1999999999998" y="366.06999999999994" as="sourcePoint" />
            <mxPoint x="1340.2199999999998" y="1126.6999999999998" as="targetPoint" />
            <Array as="points">
              <mxPoint x="1340" y="361" />
              <mxPoint x="1340" y="1170" />
              <mxPoint x="840" y="1170" />
              <mxPoint x="840" y="1127" />
            </Array>
          </mxGeometry>
        </mxCell>
        <mxCell id="xnvayWY3Ro9LNE6wZ4xw-72" value="game_state" style="text;html=1;align=center;verticalAlign=middle;whiteSpace=wrap;rounded=0;" parent="1" vertex="1">
          <mxGeometry x="870" y="330" width="60" height="30" as="geometry" />
        </mxCell>
        <mxCell id="xnvayWY3Ro9LNE6wZ4xw-76" value="Crashing_test" style="rounded=0;whiteSpace=wrap;html=1;rotation=0;" parent="1" vertex="1">
          <mxGeometry x="1060" y="700" width="110" height="450" as="geometry" />
        </mxCell>
        <mxCell id="xnvayWY3Ro9LNE6wZ4xw-78" value="game_finished" style="text;html=1;align=center;verticalAlign=middle;whiteSpace=wrap;rounded=0;" parent="1" vertex="1">
          <mxGeometry x="1200" y="710" width="60" height="30" as="geometry" />
        </mxCell>
        <mxCell id="xnvayWY3Ro9LNE6wZ4xw-81" value="game_state" style="text;html=1;align=center;verticalAlign=middle;whiteSpace=wrap;rounded=0;" parent="1" vertex="1">
          <mxGeometry x="940" y="1100" width="60" height="30" as="geometry" />
        </mxCell>
        <mxCell id="xnvayWY3Ro9LNE6wZ4xw-82" value="" style="endArrow=none;html=1;rounded=0;exitX=0.005;exitY=0.085;exitDx=0;exitDy=0;exitPerimeter=0;" parent="1" edge="1" source="xnvayWY3Ro9LNE6wZ4xw-76">
          <mxGeometry width="50" height="50" relative="1" as="geometry">
            <mxPoint x="700" y="740" as="sourcePoint" />
            <mxPoint x="80" y="445" as="targetPoint" />
            <Array as="points">
              <mxPoint x="80" y="740" />
            </Array>
          </mxGeometry>
        </mxCell>
        <mxCell id="xnvayWY3Ro9LNE6wZ4xw-83" value="CLK" style="text;html=1;align=center;verticalAlign=middle;whiteSpace=wrap;rounded=0;" parent="1" vertex="1">
          <mxGeometry x="1000" y="710" width="50" height="30" as="geometry" />
        </mxCell>
        <mxCell id="xnvayWY3Ro9LNE6wZ4xw-84" value="" style="endArrow=none;html=1;rounded=0;exitX=-0.005;exitY=0.176;exitDx=0;exitDy=0;exitPerimeter=0;" parent="1" source="xnvayWY3Ro9LNE6wZ4xw-76" edge="1">
          <mxGeometry width="50" height="50" relative="1" as="geometry">
            <mxPoint x="547" y="781" as="sourcePoint" />
            <mxPoint x="-103" y="490" as="targetPoint" />
            <Array as="points">
              <mxPoint x="-103" y="775" />
            </Array>
          </mxGeometry>
        </mxCell>
        <mxCell id="xnvayWY3Ro9LNE6wZ4xw-85" value="rst" style="text;html=1;align=center;verticalAlign=middle;whiteSpace=wrap;rounded=0;" parent="1" vertex="1">
          <mxGeometry x="995" y="750" width="60" height="30" as="geometry" />
        </mxCell>
        <mxCell id="xnvayWY3Ro9LNE6wZ4xw-86" value="" style="endArrow=none;html=1;rounded=0;entryX=-0.005;entryY=0.31;entryDx=0;entryDy=0;exitX=0.944;exitY=0.035;exitDx=0;exitDy=0;exitPerimeter=0;entryPerimeter=0;" parent="1" source="xnvayWY3Ro9LNE6wZ4xw-110" edge="1" target="xnvayWY3Ro9LNE6wZ4xw-76">
          <mxGeometry width="50" height="50" relative="1" as="geometry">
            <mxPoint x="460" y="840" as="sourcePoint" />
            <mxPoint x="700" y="840" as="targetPoint" />
            <Array as="points">
              <mxPoint x="640" y="1180" />
              <mxPoint x="640" y="840" />
            </Array>
          </mxGeometry>
        </mxCell>
        <mxCell id="xnvayWY3Ro9LNE6wZ4xw-87" value="" style="endArrow=none;html=1;rounded=0;entryX=1;entryY=1;entryDx=0;entryDy=0;" parent="1" edge="1">
          <mxGeometry width="50" height="50" relative="1" as="geometry">
            <mxPoint x="800" y="950" as="sourcePoint" />
            <mxPoint x="1060" y="952" as="targetPoint" />
          </mxGeometry>
        </mxCell>
        <mxCell id="xnvayWY3Ro9LNE6wZ4xw-88" value="" style="endArrow=none;html=1;rounded=0;entryX=1;entryY=1;entryDx=0;entryDy=0;" parent="1" edge="1">
          <mxGeometry width="50" height="50" relative="1" as="geometry">
            <mxPoint x="820" y="900" as="sourcePoint" />
            <mxPoint x="1060" y="900" as="targetPoint" />
          </mxGeometry>
        </mxCell>
        <mxCell id="xnvayWY3Ro9LNE6wZ4xw-89" value="" style="endArrow=none;html=1;rounded=0;entryX=1;entryY=1;entryDx=0;entryDy=0;" parent="1" edge="1">
          <mxGeometry width="50" height="50" relative="1" as="geometry">
            <mxPoint x="720" y="1070" as="sourcePoint" />
            <mxPoint x="1060" y="1072" as="targetPoint" />
          </mxGeometry>
        </mxCell>
        <mxCell id="xnvayWY3Ro9LNE6wZ4xw-90" value="" style="endArrow=none;html=1;rounded=0;entryX=1;entryY=1;entryDx=0;entryDy=0;" parent="1" edge="1">
          <mxGeometry width="50" height="50" relative="1" as="geometry">
            <mxPoint x="760" y="1010" as="sourcePoint" />
            <mxPoint x="1060" y="1010" as="targetPoint" />
          </mxGeometry>
        </mxCell>
        <mxCell id="xnvayWY3Ro9LNE6wZ4xw-91" value="enable" style="text;html=1;align=center;verticalAlign=middle;whiteSpace=wrap;rounded=0;" parent="1" vertex="1">
          <mxGeometry x="995" y="810" width="50" height="30" as="geometry" />
        </mxCell>
        <mxCell id="xnvayWY3Ro9LNE6wZ4xw-92" value="flappy_y" style="text;html=1;align=center;verticalAlign=middle;whiteSpace=wrap;rounded=0;" parent="1" vertex="1">
          <mxGeometry x="910" y="870" width="60" height="30" as="geometry" />
        </mxCell>
        <mxCell id="xnvayWY3Ro9LNE6wZ4xw-93" value="pipe_a_x" style="text;html=1;align=center;verticalAlign=middle;whiteSpace=wrap;rounded=0;" parent="1" vertex="1">
          <mxGeometry x="910" y="920" width="60" height="30" as="geometry" />
        </mxCell>
        <mxCell id="xnvayWY3Ro9LNE6wZ4xw-94" value="pipe_a_h_top" style="text;html=1;align=center;verticalAlign=middle;whiteSpace=wrap;rounded=0;" parent="1" vertex="1">
          <mxGeometry x="895" y="980" width="90" height="30" as="geometry" />
        </mxCell>
        <mxCell id="xnvayWY3Ro9LNE6wZ4xw-95" value="pipe_a_h_bottom" style="text;html=1;align=center;verticalAlign=middle;whiteSpace=wrap;rounded=0;" parent="1" vertex="1">
          <mxGeometry x="885" y="1040" width="110" height="30" as="geometry" />
        </mxCell>
        <mxCell id="xnvayWY3Ro9LNE6wZ4xw-96" value="" style="endArrow=none;html=1;rounded=0;" parent="1" edge="1">
          <mxGeometry width="50" height="50" relative="1" as="geometry">
            <mxPoint x="820" y="370" as="sourcePoint" />
            <mxPoint x="840" y="350" as="targetPoint" />
          </mxGeometry>
        </mxCell>
        <mxCell id="xnvayWY3Ro9LNE6wZ4xw-97" value="2" style="text;html=1;align=center;verticalAlign=middle;whiteSpace=wrap;rounded=0;" parent="1" vertex="1">
          <mxGeometry x="800" y="325.5" width="60" height="30" as="geometry" />
        </mxCell>
        <mxCell id="xnvayWY3Ro9LNE6wZ4xw-98" value="" style="endArrow=none;html=1;rounded=0;" parent="1" edge="1">
          <mxGeometry width="50" height="50" relative="1" as="geometry">
            <mxPoint x="1020" y="1137.25" as="sourcePoint" />
            <mxPoint x="1040" y="1117.25" as="targetPoint" />
          </mxGeometry>
        </mxCell>
        <mxCell id="xnvayWY3Ro9LNE6wZ4xw-99" value="2" style="text;html=1;align=center;verticalAlign=middle;whiteSpace=wrap;rounded=0;" parent="1" vertex="1">
          <mxGeometry x="1000" y="1092.75" width="60" height="30" as="geometry" />
        </mxCell>
        <mxCell id="xnvayWY3Ro9LNE6wZ4xw-101" value="" style="endArrow=none;html=1;rounded=0;" parent="1" edge="1">
          <mxGeometry width="50" height="50" relative="1" as="geometry">
            <mxPoint x="1022" y="1082.5" as="sourcePoint" />
            <mxPoint x="1042" y="1062.5" as="targetPoint" />
          </mxGeometry>
        </mxCell>
        <mxCell id="xnvayWY3Ro9LNE6wZ4xw-102" value="9" style="text;html=1;align=center;verticalAlign=middle;whiteSpace=wrap;rounded=0;" parent="1" vertex="1">
          <mxGeometry x="1002" y="1038" width="60" height="30" as="geometry" />
        </mxCell>
        <mxCell id="xnvayWY3Ro9LNE6wZ4xw-103" value="" style="endArrow=none;html=1;rounded=0;" parent="1" edge="1">
          <mxGeometry width="50" height="50" relative="1" as="geometry">
            <mxPoint x="1022" y="1019.25" as="sourcePoint" />
            <mxPoint x="1042" y="999.25" as="targetPoint" />
          </mxGeometry>
        </mxCell>
        <mxCell id="xnvayWY3Ro9LNE6wZ4xw-104" value="9" style="text;html=1;align=center;verticalAlign=middle;whiteSpace=wrap;rounded=0;" parent="1" vertex="1">
          <mxGeometry x="1002" y="974.75" width="60" height="30" as="geometry" />
        </mxCell>
        <mxCell id="xnvayWY3Ro9LNE6wZ4xw-105" value="" style="endArrow=none;html=1;rounded=0;" parent="1" edge="1">
          <mxGeometry width="50" height="50" relative="1" as="geometry">
            <mxPoint x="1024" y="961.25" as="sourcePoint" />
            <mxPoint x="1044" y="941.25" as="targetPoint" />
          </mxGeometry>
        </mxCell>
        <mxCell id="xnvayWY3Ro9LNE6wZ4xw-106" value="10" style="text;html=1;align=center;verticalAlign=middle;whiteSpace=wrap;rounded=0;" parent="1" vertex="1">
          <mxGeometry x="1004" y="916.75" width="60" height="30" as="geometry" />
        </mxCell>
        <mxCell id="xnvayWY3Ro9LNE6wZ4xw-107" value="" style="endArrow=none;html=1;rounded=0;" parent="1" edge="1">
          <mxGeometry width="50" height="50" relative="1" as="geometry">
            <mxPoint x="1024" y="909.5" as="sourcePoint" />
            <mxPoint x="1044" y="889.5" as="targetPoint" />
          </mxGeometry>
        </mxCell>
        <mxCell id="xnvayWY3Ro9LNE6wZ4xw-108" value="10" style="text;html=1;align=center;verticalAlign=middle;whiteSpace=wrap;rounded=0;" parent="1" vertex="1">
          <mxGeometry x="1004" y="865" width="60" height="30" as="geometry" />
        </mxCell>
        <mxCell id="xnvayWY3Ro9LNE6wZ4xw-110" value="VGA" style="rounded=0;whiteSpace=wrap;html=1;" parent="1" vertex="1">
          <mxGeometry x="195" y="1160" width="90" height="570" as="geometry" />
        </mxCell>
        <mxCell id="xnvayWY3Ro9LNE6wZ4xw-111" value="enable" style="text;html=1;align=center;verticalAlign=middle;whiteSpace=wrap;rounded=0;" parent="1" vertex="1">
          <mxGeometry x="304" y="1150" width="50" height="30" as="geometry" />
        </mxCell>
        <mxCell id="xnvayWY3Ro9LNE6wZ4xw-112" value="" style="endArrow=none;html=1;rounded=0;exitX=0.008;exitY=0.109;exitDx=0;exitDy=0;exitPerimeter=0;" parent="1" source="xnvayWY3Ro9LNE6wZ4xw-110" edge="1">
          <mxGeometry width="50" height="50" relative="1" as="geometry">
            <mxPoint x="190" y="1220" as="sourcePoint" />
            <mxPoint x="-103" y="775" as="targetPoint" />
            <Array as="points">
              <mxPoint x="-100" y="1220" />
            </Array>
          </mxGeometry>
        </mxCell>
        <mxCell id="xnvayWY3Ro9LNE6wZ4xw-113" value="rst" style="text;html=1;align=center;verticalAlign=middle;whiteSpace=wrap;rounded=0;" parent="1" vertex="1">
          <mxGeometry x="120" y="1190" width="60" height="30" as="geometry" />
        </mxCell>
        <mxCell id="xnvayWY3Ro9LNE6wZ4xw-114" value="" style="endArrow=none;html=1;rounded=0;dashed=1;dashPattern=8 8;" parent="1" edge="1">
          <mxGeometry width="50" height="50" relative="1" as="geometry">
            <mxPoint x="-160" y="1660" as="sourcePoint" />
            <mxPoint x="-160" y="70" as="targetPoint" />
          </mxGeometry>
        </mxCell>
        <mxCell id="xnvayWY3Ro9LNE6wZ4xw-116" value="" style="endArrow=none;html=1;rounded=0;exitX=0.016;exitY=0.029;exitDx=0;exitDy=0;exitPerimeter=0;" parent="1" source="xnvayWY3Ro9LNE6wZ4xw-110" edge="1">
          <mxGeometry width="50" height="50" relative="1" as="geometry">
            <mxPoint x="169" y="840" as="sourcePoint" />
            <mxPoint x="80" y="740" as="targetPoint" />
            <Array as="points">
              <mxPoint x="80" y="1178" />
            </Array>
          </mxGeometry>
        </mxCell>
        <mxCell id="xnvayWY3Ro9LNE6wZ4xw-117" value="CLK" style="text;html=1;align=center;verticalAlign=middle;whiteSpace=wrap;rounded=0;" parent="1" vertex="1">
          <mxGeometry x="125" y="1150" width="50" height="30" as="geometry" />
        </mxCell>
        <mxCell id="xnvayWY3Ro9LNE6wZ4xw-118" value="" style="endArrow=none;html=1;rounded=0;exitX=1.019;exitY=0.288;exitDx=0;exitDy=0;exitPerimeter=0;" parent="1" edge="1">
          <mxGeometry width="50" height="50" relative="1" as="geometry">
            <mxPoint x="285.00000000000006" y="1216.08" as="sourcePoint" />
            <mxPoint x="2080" y="1210" as="targetPoint" />
          </mxGeometry>
        </mxCell>
        <mxCell id="xnvayWY3Ro9LNE6wZ4xw-119" value="HS" style="text;html=1;align=center;verticalAlign=middle;whiteSpace=wrap;rounded=0;" parent="1" vertex="1">
          <mxGeometry x="304" y="1190" width="50" height="30" as="geometry" />
        </mxCell>
        <mxCell id="JSrbKEVZbkw8yBN8hjMD-1" value="" style="endArrow=none;html=1;rounded=0;exitX=1.019;exitY=0.288;exitDx=0;exitDy=0;exitPerimeter=0;" edge="1" parent="1">
          <mxGeometry width="50" height="50" relative="1" as="geometry">
            <mxPoint x="285.00000000000006" y="1250.08" as="sourcePoint" />
            <mxPoint x="2080" y="1250" as="targetPoint" />
          </mxGeometry>
        </mxCell>
        <mxCell id="JSrbKEVZbkw8yBN8hjMD-2" value="VS" style="text;html=1;align=center;verticalAlign=middle;whiteSpace=wrap;rounded=0;" vertex="1" parent="1">
          <mxGeometry x="304" y="1220" width="50" height="30" as="geometry" />
        </mxCell>
        <mxCell id="JSrbKEVZbkw8yBN8hjMD-3" value="" style="endArrow=none;html=1;rounded=0;exitX=1.019;exitY=0.288;exitDx=0;exitDy=0;exitPerimeter=0;entryX=-0.01;entryY=0.102;entryDx=0;entryDy=0;entryPerimeter=0;" edge="1" parent="1" target="JSrbKEVZbkw8yBN8hjMD-18">
          <mxGeometry width="50" height="50" relative="1" as="geometry">
            <mxPoint x="285.00000000000006" y="1385.33" as="sourcePoint" />
            <mxPoint x="403" y="1385.25" as="targetPoint" />
          </mxGeometry>
        </mxCell>
        <mxCell id="JSrbKEVZbkw8yBN8hjMD-4" value="hcount" style="text;html=1;align=center;verticalAlign=middle;whiteSpace=wrap;rounded=0;" vertex="1" parent="1">
          <mxGeometry x="335" y="1359.25" width="50" height="30" as="geometry" />
        </mxCell>
        <mxCell id="JSrbKEVZbkw8yBN8hjMD-5" value="" style="endArrow=none;html=1;rounded=0;exitX=1.019;exitY=0.288;exitDx=0;exitDy=0;exitPerimeter=0;entryX=-0.004;entryY=0.195;entryDx=0;entryDy=0;entryPerimeter=0;" edge="1" parent="1" target="JSrbKEVZbkw8yBN8hjMD-18">
          <mxGeometry width="50" height="50" relative="1" as="geometry">
            <mxPoint x="285.00000000000006" y="1427.9499999999998" as="sourcePoint" />
            <mxPoint x="403" y="1427.87" as="targetPoint" />
          </mxGeometry>
        </mxCell>
        <mxCell id="JSrbKEVZbkw8yBN8hjMD-6" value="vcount" style="text;html=1;align=center;verticalAlign=middle;whiteSpace=wrap;rounded=0;" vertex="1" parent="1">
          <mxGeometry x="335" y="1401.87" width="50" height="30" as="geometry" />
        </mxCell>
        <mxCell id="JSrbKEVZbkw8yBN8hjMD-7" value="" style="endArrow=none;html=1;rounded=0;exitX=0.991;exitY=0.554;exitDx=0;exitDy=0;exitPerimeter=0;entryX=-0.01;entryY=0.285;entryDx=0;entryDy=0;entryPerimeter=0;" edge="1" parent="1" source="xnvayWY3Ro9LNE6wZ4xw-110" target="JSrbKEVZbkw8yBN8hjMD-18">
          <mxGeometry width="50" height="50" relative="1" as="geometry">
            <mxPoint x="285.00000000000006" y="1457.9499999999998" as="sourcePoint" />
            <mxPoint x="403" y="1457.87" as="targetPoint" />
          </mxGeometry>
        </mxCell>
        <mxCell id="JSrbKEVZbkw8yBN8hjMD-8" value="blank" style="text;html=1;align=center;verticalAlign=middle;whiteSpace=wrap;rounded=0;" vertex="1" parent="1">
          <mxGeometry x="335" y="1450" width="50" height="30" as="geometry" />
        </mxCell>
        <mxCell id="JSrbKEVZbkw8yBN8hjMD-10" value="" style="endArrow=none;html=1;rounded=0;" edge="1" parent="1">
          <mxGeometry width="50" height="50" relative="1" as="geometry">
            <mxPoint x="299" y="1394.5" as="sourcePoint" />
            <mxPoint x="319" y="1374.5" as="targetPoint" />
          </mxGeometry>
        </mxCell>
        <mxCell id="JSrbKEVZbkw8yBN8hjMD-11" value="11" style="text;html=1;align=center;verticalAlign=middle;whiteSpace=wrap;rounded=0;" vertex="1" parent="1">
          <mxGeometry x="279" y="1350" width="60" height="30" as="geometry" />
        </mxCell>
        <mxCell id="JSrbKEVZbkw8yBN8hjMD-12" value="" style="endArrow=none;html=1;rounded=0;" edge="1" parent="1">
          <mxGeometry width="50" height="50" relative="1" as="geometry">
            <mxPoint x="299" y="1439.12" as="sourcePoint" />
            <mxPoint x="319" y="1419.12" as="targetPoint" />
          </mxGeometry>
        </mxCell>
        <mxCell id="JSrbKEVZbkw8yBN8hjMD-13" value="10" style="text;html=1;align=center;verticalAlign=middle;whiteSpace=wrap;rounded=0;" vertex="1" parent="1">
          <mxGeometry x="279" y="1394.62" width="60" height="30" as="geometry" />
        </mxCell>
        <mxCell id="JSrbKEVZbkw8yBN8hjMD-14" value="" style="endArrow=none;html=1;rounded=0;entryX=-0.017;entryY=0.912;entryDx=0;entryDy=0;entryPerimeter=0;" edge="1" parent="1" target="xnvayWY3Ro9LNE6wZ4xw-55">
          <mxGeometry width="50" height="50" relative="1" as="geometry">
            <mxPoint x="1171" y="740" as="sourcePoint" />
            <mxPoint x="600" y="760" as="targetPoint" />
            <Array as="points">
              <mxPoint x="1300" y="740" />
              <mxPoint x="1300" y="630" />
              <mxPoint x="570" y="630" />
              <mxPoint x="570" y="540" />
            </Array>
          </mxGeometry>
        </mxCell>
        <mxCell id="JSrbKEVZbkw8yBN8hjMD-15" value="" style="endArrow=none;html=1;rounded=0;dashed=1;dashPattern=8 8;" edge="1" parent="1">
          <mxGeometry width="50" height="50" relative="1" as="geometry">
            <mxPoint x="1940" y="1680" as="sourcePoint" />
            <mxPoint x="1940" y="70" as="targetPoint" />
          </mxGeometry>
        </mxCell>
        <mxCell id="JSrbKEVZbkw8yBN8hjMD-16" value="HS" style="text;html=1;align=center;verticalAlign=middle;whiteSpace=wrap;rounded=0;" vertex="1" parent="1">
          <mxGeometry x="1970" y="1180" width="50" height="30" as="geometry" />
        </mxCell>
        <mxCell id="JSrbKEVZbkw8yBN8hjMD-17" value="VS" style="text;html=1;align=center;verticalAlign=middle;whiteSpace=wrap;rounded=0;" vertex="1" parent="1">
          <mxGeometry x="1970" y="1220" width="50" height="30" as="geometry" />
        </mxCell>
        <mxCell id="JSrbKEVZbkw8yBN8hjMD-18" value="Display" style="rounded=0;whiteSpace=wrap;html=1;" vertex="1" parent="1">
          <mxGeometry x="1060" y="1330" width="120" height="520" as="geometry" />
        </mxCell>
        <mxCell id="JSrbKEVZbkw8yBN8hjMD-19" value="hcount" style="text;html=1;align=center;verticalAlign=middle;whiteSpace=wrap;rounded=0;" vertex="1" parent="1">
          <mxGeometry x="954" y="1359.25" width="50" height="30" as="geometry" />
        </mxCell>
        <mxCell id="JSrbKEVZbkw8yBN8hjMD-20" value="vcount" style="text;html=1;align=center;verticalAlign=middle;whiteSpace=wrap;rounded=0;" vertex="1" parent="1">
          <mxGeometry x="954" y="1401.87" width="50" height="30" as="geometry" />
        </mxCell>
        <mxCell id="JSrbKEVZbkw8yBN8hjMD-21" value="blank" style="text;html=1;align=center;verticalAlign=middle;whiteSpace=wrap;rounded=0;" vertex="1" parent="1">
          <mxGeometry x="954" y="1450" width="50" height="30" as="geometry" />
        </mxCell>
        <mxCell id="JSrbKEVZbkw8yBN8hjMD-22" value="" style="endArrow=none;html=1;rounded=0;" edge="1" parent="1">
          <mxGeometry width="50" height="50" relative="1" as="geometry">
            <mxPoint x="1024" y="1394.5" as="sourcePoint" />
            <mxPoint x="1044" y="1374.5" as="targetPoint" />
          </mxGeometry>
        </mxCell>
        <mxCell id="JSrbKEVZbkw8yBN8hjMD-23" value="11" style="text;html=1;align=center;verticalAlign=middle;whiteSpace=wrap;rounded=0;" vertex="1" parent="1">
          <mxGeometry x="1004" y="1350" width="60" height="30" as="geometry" />
        </mxCell>
        <mxCell id="JSrbKEVZbkw8yBN8hjMD-24" value="" style="endArrow=none;html=1;rounded=0;" edge="1" parent="1">
          <mxGeometry width="50" height="50" relative="1" as="geometry">
            <mxPoint x="1024" y="1439.12" as="sourcePoint" />
            <mxPoint x="1044" y="1419.12" as="targetPoint" />
          </mxGeometry>
        </mxCell>
        <mxCell id="JSrbKEVZbkw8yBN8hjMD-25" value="10" style="text;html=1;align=center;verticalAlign=middle;whiteSpace=wrap;rounded=0;" vertex="1" parent="1">
          <mxGeometry x="1004" y="1394.62" width="60" height="30" as="geometry" />
        </mxCell>
        <mxCell id="JSrbKEVZbkw8yBN8hjMD-26" value="" style="endArrow=none;html=1;rounded=0;exitX=-0.029;exitY=0.366;exitDx=0;exitDy=0;exitPerimeter=0;" edge="1" parent="1" source="JSrbKEVZbkw8yBN8hjMD-18">
          <mxGeometry width="50" height="50" relative="1" as="geometry">
            <mxPoint x="520" y="1330" as="sourcePoint" />
            <mxPoint x="840" y="1170" as="targetPoint" />
            <Array as="points">
              <mxPoint x="840" y="1520" />
            </Array>
          </mxGeometry>
        </mxCell>
        <mxCell id="JSrbKEVZbkw8yBN8hjMD-27" value="game_state" style="text;html=1;align=center;verticalAlign=middle;whiteSpace=wrap;rounded=0;" vertex="1" parent="1">
          <mxGeometry x="942" y="1493.25" width="60" height="30" as="geometry" />
        </mxCell>
        <mxCell id="JSrbKEVZbkw8yBN8hjMD-28" value="" style="endArrow=none;html=1;rounded=0;" edge="1" parent="1">
          <mxGeometry width="50" height="50" relative="1" as="geometry">
            <mxPoint x="1022" y="1530.5" as="sourcePoint" />
            <mxPoint x="1042" y="1510.5" as="targetPoint" />
          </mxGeometry>
        </mxCell>
        <mxCell id="JSrbKEVZbkw8yBN8hjMD-29" value="2" style="text;html=1;align=center;verticalAlign=middle;whiteSpace=wrap;rounded=0;" vertex="1" parent="1">
          <mxGeometry x="1002" y="1486" width="60" height="30" as="geometry" />
        </mxCell>
        <mxCell id="JSrbKEVZbkw8yBN8hjMD-33" value="" style="endArrow=none;html=1;rounded=0;entryX=0.932;entryY=1.015;entryDx=0;entryDy=0;entryPerimeter=0;" edge="1" parent="1" target="JSrbKEVZbkw8yBN8hjMD-44">
          <mxGeometry width="50" height="50" relative="1" as="geometry">
            <mxPoint x="800" y="950" as="sourcePoint" />
            <mxPoint x="1060" y="1575.25" as="targetPoint" />
            <Array as="points">
              <mxPoint x="800" y="1570" />
            </Array>
          </mxGeometry>
        </mxCell>
        <mxCell id="JSrbKEVZbkw8yBN8hjMD-34" value="" style="endArrow=none;html=1;rounded=0;entryX=1;entryY=1;entryDx=0;entryDy=0;" edge="1" parent="1">
          <mxGeometry width="50" height="50" relative="1" as="geometry">
            <mxPoint x="720" y="1070" as="sourcePoint" />
            <mxPoint x="1060" y="1695.25" as="targetPoint" />
            <Array as="points">
              <mxPoint x="720" y="1690" />
            </Array>
          </mxGeometry>
        </mxCell>
        <mxCell id="JSrbKEVZbkw8yBN8hjMD-35" value="" style="endArrow=none;html=1;rounded=0;entryX=1;entryY=1;entryDx=0;entryDy=0;" edge="1" parent="1">
          <mxGeometry width="50" height="50" relative="1" as="geometry">
            <mxPoint x="760" y="1010" as="sourcePoint" />
            <mxPoint x="1060" y="1633.25" as="targetPoint" />
            <Array as="points">
              <mxPoint x="760" y="1630" />
            </Array>
          </mxGeometry>
        </mxCell>
        <mxCell id="JSrbKEVZbkw8yBN8hjMD-36" value="pipe_a_x" style="text;html=1;align=center;verticalAlign=middle;whiteSpace=wrap;rounded=0;" vertex="1" parent="1">
          <mxGeometry x="910" y="1543.25" width="60" height="30" as="geometry" />
        </mxCell>
        <mxCell id="JSrbKEVZbkw8yBN8hjMD-37" value="pipe_a_h_top" style="text;html=1;align=center;verticalAlign=middle;whiteSpace=wrap;rounded=0;" vertex="1" parent="1">
          <mxGeometry x="895" y="1603.25" width="90" height="30" as="geometry" />
        </mxCell>
        <mxCell id="JSrbKEVZbkw8yBN8hjMD-38" value="pipe_a_h_bottom" style="text;html=1;align=center;verticalAlign=middle;whiteSpace=wrap;rounded=0;" vertex="1" parent="1">
          <mxGeometry x="885" y="1663.25" width="110" height="30" as="geometry" />
        </mxCell>
        <mxCell id="JSrbKEVZbkw8yBN8hjMD-39" value="" style="endArrow=none;html=1;rounded=0;" edge="1" parent="1">
          <mxGeometry width="50" height="50" relative="1" as="geometry">
            <mxPoint x="1022" y="1705.75" as="sourcePoint" />
            <mxPoint x="1042" y="1685.75" as="targetPoint" />
          </mxGeometry>
        </mxCell>
        <mxCell id="JSrbKEVZbkw8yBN8hjMD-40" value="9" style="text;html=1;align=center;verticalAlign=middle;whiteSpace=wrap;rounded=0;" vertex="1" parent="1">
          <mxGeometry x="1002" y="1661.25" width="60" height="30" as="geometry" />
        </mxCell>
        <mxCell id="JSrbKEVZbkw8yBN8hjMD-41" value="" style="endArrow=none;html=1;rounded=0;" edge="1" parent="1">
          <mxGeometry width="50" height="50" relative="1" as="geometry">
            <mxPoint x="1022" y="1642.5" as="sourcePoint" />
            <mxPoint x="1042" y="1622.5" as="targetPoint" />
          </mxGeometry>
        </mxCell>
        <mxCell id="JSrbKEVZbkw8yBN8hjMD-42" value="9" style="text;html=1;align=center;verticalAlign=middle;whiteSpace=wrap;rounded=0;" vertex="1" parent="1">
          <mxGeometry x="1002" y="1598" width="60" height="30" as="geometry" />
        </mxCell>
        <mxCell id="JSrbKEVZbkw8yBN8hjMD-43" value="" style="endArrow=none;html=1;rounded=0;" edge="1" parent="1">
          <mxGeometry width="50" height="50" relative="1" as="geometry">
            <mxPoint x="1024" y="1584.5" as="sourcePoint" />
            <mxPoint x="1044" y="1564.5" as="targetPoint" />
          </mxGeometry>
        </mxCell>
        <mxCell id="JSrbKEVZbkw8yBN8hjMD-44" value="10" style="text;html=1;align=center;verticalAlign=middle;whiteSpace=wrap;rounded=0;" vertex="1" parent="1">
          <mxGeometry x="1004" y="1540" width="60" height="30" as="geometry" />
        </mxCell>
      </root>
    </mxGraphModel>
  </diagram>
</mxfile>
